<?xml version="1.0" encoding="UTF-8"?>
<!DOCTYPE svg PUBLIC "-//W3C//DTD SVG 1.1//EN" "http://www.w3.org/Graphics/SVG/1.1/DTD/svg11.dtd">
<!-- Creator: CorelDRAW 2019 (64-Bit Evaluation Version) -->
<svg xmlns="http://www.w3.org/2000/svg" xml:space="preserve" width="512px" height="512px" version="1.1" style="shape-rendering:geometricPrecision; text-rendering:geometricPrecision; image-rendering:optimizeQuality; fill-rule:evenodd; clip-rule:evenodd"
viewBox="0 0 512 512"
 xmlns:xlink="http://www.w3.org/1999/xlink">
 <defs>
  <style type="text/css">
   <![CDATA[
    .fil0 {fill:red}
    .fil1 {fill:white}
   ]]>
  </style>
    <clipPath id="id0">
     <path d="M55.12 55.12l401.76 0 0 401.76 -401.76 0 0 -401.76z"/>
    </clipPath>
 </defs>
 <g id="Layer_x0020_1">
  <metadata id="CorelCorpID_0Corel-Layer"/>
  <path class="fil0" d="M4 256c0,-139.18 112.82,-252 252,-252 139.18,0 252,112.82 252,252 0,139.18 -112.82,252 -252,252 -139.18,0 -252,-112.82 -252,-252zm66 0c0,-102.72 83.28,-186 186,-186 102.72,0 186,83.28 186,186 0,102.72 -83.28,186 -186,186 -102.72,0 -186,-83.28 -186,-186z"/>
  <g id="_2243410737984">
   <g style="clip-path:url(#id0)">
    <image x="55.12" y="55.12" width="401.76" height="401.76" xlink:href="Expired_Images\Expired_ImgID1.png"/>
   </g>
  </g>
  <circle class="fil1" transform="matrix(-5.86443E-14 -0.738095 0.738095 -5.86443E-14 256 256)" r="252"/>
  <g id="_2243410734336">
   <path class="fil0" d="M217 343.76l78.94 -140.03c5.51,-9.89 13.13,-10.15 18.79,-1.35 7.76,12.07 68.02,118.96 78.95,138.37 4.27,7.59 5,18.2 -6.84,18.2 -14.23,0 -158.46,0 -158.46,0 0,0 -18.03,0.94 -11.38,-15.19zm87.29 -99.63l3.8 0c3.65,0 6.64,2.99 6.64,6.65l0 55.03c0,3.65 -2.99,6.64 -6.64,6.64l-3.8 0c-3.65,0 -6.64,-2.99 -6.64,-6.64l0 -55.03c0,-3.66 2.99,-6.65 6.64,-6.65zm1.43 75.91c4.71,0 8.53,3.83 8.53,8.54 0,4.72 -3.82,8.54 -8.53,8.54 -4.72,0 -8.54,-3.82 -8.54,-8.54 0,-4.71 3.82,-8.54 8.54,-8.54z"/>
   <path class="fil0" d="M206.08 153.04c33.55,0 62.84,18.24 78.51,45.33 -0.16,0.26 -0.31,0.52 -0.46,0.8l-9.72 17.24c-10.83,-27.12 -37.34,-46.29 -68.33,-46.29 -40.61,0 -73.53,32.93 -73.53,73.54 0,40.61 32.92,73.54 73.53,73.54 4.11,0 8.14,-0.35 12.07,-1l-10.18 18.05c-0.63,0.01 -1.25,0.02 -1.89,0.02 -50.04,0 -90.61,-40.56 -90.61,-90.61 0,-50.05 40.57,-90.62 90.61,-90.62z"/>
   <path class="fil0" d="M155.53 272.77c-5.55,-9.02 -8.75,-19.64 -8.75,-31.01 0,-28.01 19.43,-51.49 45.55,-57.69l0 53.7 -36.8 35z"/>
   <path class="fil0" d="M175.17 284.37l-2.07 -1.96c-1.51,-1.44 -1.57,-3.86 -0.13,-5.37l24.52 -25.78c-0.27,-0.91 -0.42,-1.86 -0.42,-2.86 0,-3.59 1.9,-6.73 4.75,-8.48l0 -52.72c0,-2.09 1.7,-3.79 3.79,-3.79l2.85 0c2.09,0 3.79,1.7 3.79,3.79l0 52.72c2.85,1.75 4.75,4.89 4.75,8.48 0,5.51 -4.46,9.96 -9.97,9.96 -0.6,0 -1.18,-0.05 -1.75,-0.15l-24.75 26.02c-1.44,1.52 -3.85,1.58 -5.36,0.14z"/>
  </g>
 </g>
</svg>
