<?xml version="1.0" encoding="UTF-8"?>
<!DOCTYPE svg PUBLIC "-//W3C//DTD SVG 1.1//EN" "http://www.w3.org/Graphics/SVG/1.1/DTD/svg11.dtd">
<!-- Creator: CorelDRAW 2019 (64-Bit Evaluation Version) -->
<svg xmlns="http://www.w3.org/2000/svg" xml:space="preserve" width="512px" height="512px" version="1.1" style="shape-rendering:geometricPrecision; text-rendering:geometricPrecision; image-rendering:optimizeQuality; fill-rule:evenodd; clip-rule:evenodd"
viewBox="0 0 512 512"
 xmlns:xlink="http://www.w3.org/1999/xlink">
 <defs>
  <style type="text/css">
   <![CDATA[
    .fil0 {fill:#D6D6D7}
    .fil1 {fill:red}
    .fil2 {fill:white}
   ]]>
  </style>
    <clipPath id="id0">
     <path d="M55.12 55.12l401.76 0 0 401.76 -401.76 0 0 -401.76z"/>
    </clipPath>
 </defs>
 <g id="Layer_x0020_1">
  <metadata id="CorelCorpID_0Corel-Layer"/>
  <path class="fil0" d="M4 256c0,-139.18 112.82,-252 252,-252 139.18,0 252,112.82 252,252 0,139.18 -112.82,252 -252,252 -139.18,0 -252,-112.82 -252,-252zm66 0c0,-102.72 83.28,-186 186,-186 102.72,0 186,83.28 186,186 0,102.72 -83.28,186 -186,186 -102.72,0 -186,-83.28 -186,-186z"/>
  <circle class="fil1" cx="475.14" cy="259.04" r="32.81"/>
  <circle class="fil1" cx="36.85" cy="245.65" r="32.81"/>
  <path class="fil1" d="M62.47 121.31c18.12,0 32.81,14.69 32.81,32.82 0,18.12 -14.69,32.81 -32.81,32.81 -18.12,0 -32.81,-14.69 -32.81,-32.81 0,-18.13 14.69,-32.82 32.81,-32.82z"/>
  <path class="fil1" d="M115.82 54.83c18.12,0 32.81,14.69 32.81,32.81 0,18.12 -14.69,32.81 -32.81,32.81 -18.12,0 -32.82,-14.69 -32.82,-32.81 0,-18.12 14.7,-32.81 32.82,-32.81z"/>
  <path class="fil1" d="M189.01 14.87c18.12,0 32.81,14.69 32.81,32.81 0,18.12 -14.69,32.81 -32.81,32.81 -18.12,0 -32.81,-14.69 -32.81,-32.81 0,-18.12 14.69,-32.81 32.81,-32.81z"/>
  <path class="fil1" d="M270.8 4.46c18.12,0 32.81,14.69 32.81,32.81 0,18.12 -14.69,32.81 -32.81,32.81 -18.13,0 -32.82,-14.69 -32.82,-32.81 0,-18.12 14.69,-32.81 32.82,-32.81z"/>
  <path class="fil1" d="M350.85 24.98c18.12,0 32.81,14.69 32.81,32.81 0,18.12 -14.69,32.81 -32.81,32.81 -18.12,0 -32.81,-14.69 -32.81,-32.81 0,-18.12 14.69,-32.81 32.81,-32.81z"/>
  <path class="fil1" d="M417.12 74.74c18.12,0 32.81,14.69 32.81,32.81 0,18.13 -14.69,32.82 -32.81,32.82 -18.13,0 -32.82,-14.69 -32.82,-32.82 0,-18.12 14.69,-32.81 32.82,-32.81z"/>
  <path class="fil1" d="M460.59 145.41c18.13,0 32.82,14.69 32.82,32.81 0,18.12 -14.69,32.81 -32.82,32.81 -18.12,0 -32.81,-14.69 -32.81,-32.81 0,-18.12 14.69,-32.81 32.81,-32.81z"/>
  <path class="fil1" d="M256 508c-139.18,0 -252,-112.82 -252,-252 0,-44 66,-43 66,0 0,102.72 83.27,186 186,186 45,0 44,66 0,66z"/>
  <g id="_2278712302672">
   <g style="clip-path:url(#id0)">
    <image x="55.12" y="55.12" width="401.76" height="401.76" xlink:href="Problem_Images\Problem_ImgID1.png"/>
   </g>
  </g>
  <circle class="fil2" transform="matrix(-5.86443E-14 -0.738095 0.738095 -5.86443E-14 256 256)" r="252"/>
  <path class="fil1" d="M147.49 316.76l96.22 -170.66c6.7,-12.05 16,-12.37 22.89,-1.64 9.46,14.71 82.9,144.97 96.23,168.63 5.2,9.24 6.09,22.17 -8.34,22.17 -17.35,0 -193.12,0 -193.12,0 0,0 -21.97,1.16 -13.88,-18.5zm106.39 -121.42l4.63 0c4.45,0 8.09,3.64 8.09,8.09l0 67.08c0,4.45 -3.64,8.09 -8.09,8.09l-4.63 0c-4.45,0 -8.09,-3.64 -8.09,-8.09l0 -67.08c0,-4.45 3.64,-8.09 8.09,-8.09zm1.74 92.51c5.75,0 10.41,4.66 10.41,10.41 0,5.75 -4.66,10.41 -10.41,10.41 -5.75,0 -10.41,-4.66 -10.41,-10.41 0,-5.75 4.66,-10.41 10.41,-10.41z"/>
 </g>
</svg>
