<?xml version="1.0" encoding="UTF-8"?>
<!DOCTYPE svg PUBLIC "-//W3C//DTD SVG 1.1//EN" "http://www.w3.org/Graphics/SVG/1.1/DTD/svg11.dtd">
<!-- Creator: CorelDRAW 2019 (64-Bit Evaluation Version) -->
<svg xmlns="http://www.w3.org/2000/svg" xml:space="preserve" width="512px" height="512px" version="1.1" style="shape-rendering:geometricPrecision; text-rendering:geometricPrecision; image-rendering:optimizeQuality; fill-rule:evenodd; clip-rule:evenodd"
viewBox="0 0 512 512"
 xmlns:xlink="http://www.w3.org/1999/xlink">
 <defs>
  <style type="text/css">
   <![CDATA[
    .str0 {stroke:#717171;stroke-width:10;stroke-miterlimit:2.61313}
    .str4 {stroke:#717171;stroke-width:4;stroke-miterlimit:2.61313}
    .str3 {stroke:#717171;stroke-width:8;stroke-miterlimit:2.61313}
    .str1 {stroke:#717171;stroke-width:10;stroke-linecap:round;stroke-linejoin:round;stroke-miterlimit:2.61313}
    .str2 {stroke:#717171;stroke-width:8;stroke-linecap:round;stroke-linejoin:round;stroke-miterlimit:2.61313}
    .fil0 {fill:none}
    .fil1 {fill:#717171}
   ]]>
  </style>
 </defs>
 <g id="Layer_x0020_1">
  <metadata id="CorelCorpID_0Corel-Layer"/>
  <g id="_1572434674496">
   <rect class="fil0 str0" x="124" y="10.5" width="264" height="491" rx="24.85" ry="30.75"/>
   <rect class="fil0 str0" x="124" y="76.5" width="264" height="361"/>
   <line class="fil0 str1" x1="232.71" y1="43.5" x2="278.52" y2= "43.5" />
   <line class="fil0 str2" x1="150.5" y1="144.22" x2="188.79" y2= "102.04" />
   <line class="fil0 str2" x1="153.07" y1="171.5" x2="210.94" y2= "107.75" />
   <rect class="fil0 str0" x="230.96" y="453.5" width="50.08" height="31" rx="5.06" ry="14.09"/>
   <path class="fil0 str3" d="M255.47 156.51c-27.37,0 -48.43,22 -49.49,49l100.04 0c-1.06,-27 -23.17,-49 -50.55,-49z"/>
   <path class="fil0 str3" d="M204.93 220.51l102.14 0 0 107 -19.53 0c0.37,1.1 0.58,2.28 0.58,3.5l0 25c0,6.32 -5.45,11.5 -12.11,11.5l0 0c-6.66,0 -12.11,-5.18 -12.11,-11.5l0 -25c0,-1.22 0.2,-2.4 0.58,-3.5l-16.95 0c0.37,1.1 0.57,2.28 0.57,3.5l0 25c0,6.32 -5.44,11.5 -12.11,11.5l0 0c-6.66,0 -12.11,-5.18 -12.11,-11.5l0 -25c0,-1.22 0.21,-2.4 0.58,-3.5l-19.53 0 0 -107z"/>
   <rect class="fil0 str3" x="161.76" y="224.51" width="27.38" height="80" rx="13.69" ry="11"/>
   <rect class="fil0 str3" x="322.86" y="224.51" width="27.38" height="80" rx="13.69" ry="11"/>
   <rect class="fil1" transform="matrix(0.744542 -0.707107 0.744542 0.707107 222.338 149.987)" width="7" height="17" rx="3.5" ry="3.5"/>
   <rect class="fil1" transform="matrix(-0.744542 -0.707107 -0.744542 0.707107 286.027 150.002)" width="7" height="17" rx="3.5" ry="3.5"/>
   <rect class="fil1" x="240.73" y="175.51" width="7.37" height="12" rx="3.69" ry="5.25"/>
   <rect class="fil1" x="263.9" y="175.51" width="7.37" height="12" rx="3.69" ry="5.25"/>
   <rect class="fil0 str3" x="159.4" y="465.75" width="47.93" height="6.5" rx="4.84" ry="2.95"/>
   <rect class="fil0 str3" x="305.78" y="465.75" width="47.93" height="6.5" rx="4.84" ry="2.95"/>
   <circle class="fil0 str4" cx="305" cy="43.5" r="9"/>
  </g>
 </g>
</svg>
