<?xml version="1.0" encoding="UTF-8"?>
<!DOCTYPE svg PUBLIC "-//W3C//DTD SVG 1.1//EN" "http://www.w3.org/Graphics/SVG/1.1/DTD/svg11.dtd">
<!-- Creator: CorelDRAW 2019 (64-Bit Evaluation Version) -->
<svg xmlns="http://www.w3.org/2000/svg" xml:space="preserve" width="512px" height="512px" version="1.1" style="shape-rendering:geometricPrecision; text-rendering:geometricPrecision; image-rendering:optimizeQuality; fill-rule:evenodd; clip-rule:evenodd"
viewBox="0 0 512 512"
 xmlns:xlink="http://www.w3.org/1999/xlink">
 <defs>
  <style type="text/css">
   <![CDATA[
    .str0 {stroke:#717171;stroke-width:8;stroke-linecap:round;stroke-linejoin:round;stroke-miterlimit:2.61313}
    .fil1 {fill:none}
    .fil0 {fill:#717171}
   ]]>
  </style>
 </defs>
 <g id="Layer_x0020_1">
  <metadata id="CorelCorpID_0Corel-Layer"/>
  <g id="_2852509796464">
   <path class="fil0" d="M156.55 8l197.9 0c15.7,0 28.55,12.85 28.55,28.55l0 438.9c0,15.7 -12.85,28.55 -28.55,28.55l-197.9 0c-15.7,0 -28.55,-12.85 -28.55,-28.55l0 -438.9c0,-15.7 12.85,-28.55 28.55,-28.55zm80.95 15l36 0c1.38,0 2.5,1.12 2.5,2.5l0 1c0,1.38 -1.12,2.5 -2.5,2.5l-36 0c-1.38,0 -2.5,-1.12 -2.5,-2.5l0 -1c0,-1.38 1.12,-2.5 2.5,-2.5zm57.5 -3c3.31,0 6,2.69 6,6 0,3.31 -2.69,6 -6,6 -3.31,0 -6,-2.69 -6,-6 0,-3.31 2.69,-6 6,-6zm-136 4l24 0c1,13 11,23 23,23l100 0c12,0 22,-10 23,-23l24 0c8,0 15,7 15,15l0 434c0,8 -7,15 -15,15l-194 0c-8,0 -15,-7 -15,-15l0 -434c0,-8 7,-15 15,-15z"/>
   <line class="fil1 str0" x1="163" y1="106" x2="208" y2= "61" />
   <line class="fil1 str0" x1="169" y1="133" x2="237" y2= "65" />
  </g>
 </g>
</svg>
