<?xml version="1.0" encoding="UTF-8"?>
<!DOCTYPE svg PUBLIC "-//W3C//DTD SVG 1.1//EN" "http://www.w3.org/Graphics/SVG/1.1/DTD/svg11.dtd">
<!-- Creator: CorelDRAW 2019 (64-Bit Evaluation Version) -->
<svg xmlns="http://www.w3.org/2000/svg" xml:space="preserve" width="512px" height="512px" version="1.1" style="shape-rendering:geometricPrecision; text-rendering:geometricPrecision; image-rendering:optimizeQuality; fill-rule:evenodd; clip-rule:evenodd"
viewBox="0 0 512 512"
 xmlns:xlink="http://www.w3.org/1999/xlink">
 <defs>
  <style type="text/css">
   <![CDATA[
    .str0 {stroke:#717171;stroke-width:8;stroke-linecap:round;stroke-linejoin:round;stroke-miterlimit:2.61313}
    .fil2 {fill:none}
    .fil0 {fill:#717171}
    .fil1 {fill:#717171}
   ]]>
  </style>
 </defs>
 <g id="Layer_x0020_1">
  <metadata id="CorelCorpID_0Corel-Layer"/>
  <g id="_1573237251808">
   <g>
    <path class="fil0" d="M55.89 93.5l399.23 0c8.57,0 15.58,7.01 15.58,15.58l0 254.38 -430.38 0 0 -254.38c0,-8.57 7.01,-15.58 15.57,-15.58zm3.14 17.73l393.94 0 0 238.33 -393.94 0 0 -238.33z"/>
    <path class="fil1" d="M4.86 400.77l35.46 -27.57 431.36 0 35.46 27.57 0 11.82c0,0 0,5.91 -4.93,5.91 -4.92,0 -492.42,0 -492.42,0 0,0 -4.93,0 -4.93,-4.92 0,-4.93 0,-12.81 0,-12.81zm287.58 -2.95c0,0.98 0,1.97 0,1.97l0 2.95c0,2.96 -1.97,4.93 -4.92,4.93l-63.03 0c-2.96,0 -4.93,-1.97 -4.93,-4.93l0 -2.95c0,0 0,-0.99 0,-1.97l72.88 0z"/>
   </g>
   <line class="fil2 str0" x1="74" y1="170" x2="121" y2= "125" />
   <line class="fil2 str0" x1="80" y1="197" x2="152" y2= "129" />
  </g>
 </g>
</svg>
