<?xml version="1.0" encoding="UTF-8"?>
<!DOCTYPE svg PUBLIC "-//W3C//DTD SVG 1.1//EN" "http://www.w3.org/Graphics/SVG/1.1/DTD/svg11.dtd">
<!-- Creator: CorelDRAW 2019 (64-Bit Evaluation Version) -->
<svg xmlns="http://www.w3.org/2000/svg" xml:space="preserve" width="512px" height="512px" version="1.1" style="shape-rendering:geometricPrecision; text-rendering:geometricPrecision; image-rendering:optimizeQuality; fill-rule:evenodd; clip-rule:evenodd"
viewBox="0 0 512 512"
 xmlns:xlink="http://www.w3.org/1999/xlink">
 <defs>
  <style type="text/css">
   <![CDATA[
    .str0 {stroke:#717171;stroke-width:8;stroke-linecap:round;stroke-linejoin:round;stroke-miterlimit:2.61313}
    .fil2 {fill:none}
    .fil0 {fill:#717171}
    .fil1 {fill:#717171}
   ]]>
  </style>
 </defs>
 <g id="Layer_x0020_1">
  <metadata id="CorelCorpID_0Corel-Layer"/>
  <g id="_1573226202240">
   <path class="fil0" d="M51.11 92l409.78 0c8.86,0 16.11,7.25 16.11,16.11l0 265.78c0,8.86 -7.25,16.11 -16.11,16.11l-409.78 0c-8.86,0 -16.11,-7.25 -16.11,-16.11l0 -265.78c0,-8.86 7.25,-16.11 16.11,-16.11zm0.89 15l408 0c1.65,0 3,1.35 3,3l0 261c0,1.65 -1.35,3 -3,3l-408 0c-1.65,0 -3,-1.35 -3,-3l0 -261c0,-1.65 1.35,-3 3,-3z"/>
   <path class="fil1" d="M510 400l0 11c0,4.4 -3.6,8 -8,8l-492 0c-4.4,0 -8,-3.6 -8,-8l0 -11 209.15 0c0.7,3.41 3.74,6 7.35,6l75 0c3.61,0 6.65,-2.59 7.35,-6l209.15 0z"/>
   <line class="fil2 str0" x1="66" y1="167" x2="113" y2= "122" />
   <line class="fil2 str0" x1="72" y1="194" x2="144" y2= "126" />
  </g>
 </g>
</svg>
