<?xml version="1.0" encoding="UTF-8"?>
<!DOCTYPE svg PUBLIC "-//W3C//DTD SVG 1.1//EN" "http://www.w3.org/Graphics/SVG/1.1/DTD/svg11.dtd">
<!-- Creator: CorelDRAW 2019 (64-Bit Evaluation Version) -->
<svg xmlns="http://www.w3.org/2000/svg" xml:space="preserve" width="512px" height="512px" version="1.1" style="shape-rendering:geometricPrecision; text-rendering:geometricPrecision; image-rendering:optimizeQuality; fill-rule:evenodd; clip-rule:evenodd"
viewBox="0 0 512 512"
 xmlns:xlink="http://www.w3.org/1999/xlink">
 <defs>
  <style type="text/css">
   <![CDATA[
    .str0 {stroke:#717171;stroke-width:8;stroke-linecap:round;stroke-linejoin:round;stroke-miterlimit:2.61313}
    .fil1 {fill:none}
    .fil0 {fill:#717171}
   ]]>
  </style>
 </defs>
 <g id="Layer_x0020_1">
  <metadata id="CorelCorpID_0Corel-Layer"/>
  <path class="fil0" d="M373 161l-2 0 0 -127c0,-17 -13,-30 -30,-30l-170 0c-17,0 -30,13 -30,30l0 55 -2 0c-2,0 -4,2 -4,4l0 62c0,2 2,4 4,4l2 0 0 30 -2 0c-2,0 -4,1 -4,2l0 28c0,1 2,2 4,2l2 0 0 257c0,17 13,30 30,30l170 0c17,0 30,-13 30,-30l0 -282 2 0c2,0 4,-1 4,-2l0 -30c0,-2 -2,-3 -4,-3zm-214.76 -128l195.52 0c5.64,0 10.24,4.61 10.24,10.24l0 427.53c0,5.63 -4.6,10.23 -10.24,10.23l-195.52 0c-5.64,0 -10.24,-4.6 -10.24,-10.23l0 -427.53c0,-5.63 4.6,-10.24 10.24,-10.24zm32.76 -18c2.76,0 5,2.24 5,5 0,2.76 -2.24,5 -5,5 -2.76,0 -5,-2.24 -5,-5 0,-2.76 2.24,-5 5,-5zm-14 2c1.66,0 3,1.34 3,3 0,1.66 -1.34,3 -3,3 -1.66,0 -3,-1.34 -3,-3 0,-1.66 1.34,-3 3,-3zm31 -1c2.21,0 4,1.79 4,4 0,2.21 -1.79,4 -4,4 -2.21,0 -4,-1.79 -4,-4 0,-2.21 1.79,-4 4,-4zm14 1c1.66,0 3,1.34 3,3 0,1.66 -1.34,3 -3,3 -1.66,0 -3,-1.34 -3,-3 0,-1.66 1.34,-3 3,-3zm17.33 1l34.34 0c0.73,0 1.33,0.6 1.33,1.33l0 1.34c0,0.73 -0.6,1.33 -1.33,1.33l-34.34 0c-0.73,0 -1.33,-0.6 -1.33,-1.33l0 -1.34c0,-0.73 0.6,-1.33 1.33,-1.33zm62.67 -5c3.87,0 7,3.13 7,7 0,3.87 -3.13,7 -7,7 -3.87,0 -7,-3.13 -7,-7 0,-3.87 3.13,-7 7,-7zm20 3c2.21,0 4,1.79 4,4 0,2.21 -1.79,4 -4,4 -2.21,0 -4,-1.79 -4,-4 0,-2.21 1.79,-4 4,-4z"/>
  <line class="fil1 str0" x1="162" y1="93" x2="208" y2= "48" />
  <line class="fil1 str0" x1="168" y1="121" x2="236" y2= "53" />
 </g>
</svg>
