<?xml version="1.0" encoding="UTF-8"?>
<!DOCTYPE svg PUBLIC "-//W3C//DTD SVG 1.1//EN" "http://www.w3.org/Graphics/SVG/1.1/DTD/svg11.dtd">
<!-- Creator: CorelDRAW 2019 (64-Bit Evaluation Version) -->
<svg xmlns="http://www.w3.org/2000/svg" xml:space="preserve" width="512px" height="512px" version="1.1" style="shape-rendering:geometricPrecision; text-rendering:geometricPrecision; image-rendering:optimizeQuality; fill-rule:evenodd; clip-rule:evenodd"
viewBox="0 0 512 512"
 xmlns:xlink="http://www.w3.org/1999/xlink">
 <defs>
  <style type="text/css">
   <![CDATA[
    .str0 {stroke:#717171;stroke-width:10;stroke-miterlimit:2.61313}
    .str1 {stroke:#717171;stroke-width:8;stroke-linecap:round;stroke-linejoin:round;stroke-miterlimit:2.61313}
    .fil0 {fill:none}
   ]]>
  </style>
 </defs>
 <g id="Layer_x0020_1">
  <metadata id="CorelCorpID_0Corel-Layer"/>
  <g id="_1572902471232">
   <path class="fil0 str0" d="M98.11 262.69l-57.45 176.95c0,0 -2.3,6.9 5.74,4.6 8.04,-2.3 110.31,-33.32 110.31,-33.32l0.46 -0.16c-14.75,-37.05 -36.62,-92.54 -58.55,-148.31l-0.51 0.24z"/>
   <path class="fil0 str0" d="M34.68 49.04l5.79 0.08c-1.38,0.3 -2.66,0.88 -3.47,1.88 -1.86,2.28 -0.5,5.78 0.86,8.31 0,0 153.29,380.33 157.94,390.67 4.64,10.35 13.93,6.9 13.93,6.9l29.53 -10.03 -40 14.33c-4.34,1.55 -10.81,2.61 -15.03,1.44 -5.34,-1.47 -8.06,-5.65 -9.06,-7.54 -5.08,-9.67 -141.19,-357.37 -153.2,-388.06 -1.61,-4.1 -1.74,-8.58 0.92,-12.32 2.72,-3.82 7.83,-6.1 11.79,-5.66z"/>
   <path class="fil0 str0" d="M44.83 48.97l310.57 4.55c2.37,0.04 5.31,0.05 6.82,0.58 1.42,0.5 2.93,1.81 4.29,4.06 3.28,5.41 109.88,255.03 121.92,284.47 1.73,4.24 3.42,7.3 3.51,11.98 0.06,3.17 -1.53,5.93 -3.49,6.9 -4.64,2.3 -278.72,95.37 -278.72,95.37 0,0 -9.29,3.45 -13.93,-6.9 -4.65,-10.34 -157.94,-390.67 -157.94,-390.67 -1.36,-2.53 -2.72,-6.03 -0.86,-8.31 1.68,-2.06 5.3,-2.34 7.83,-2.03z"/>
   <path class="fil0 str0" d="M67.05 71.95l284.41 -1.15c0,0 2.28,-1.15 4.55,4.6 2.28,5.74 112.07,262.96 112.07,262.96 0,0 3.41,5.75 -2.28,8.05 -5.69,2.3 -251.42,85.03 -251.42,85.03 0,0 -4.55,2.3 -7.97,-5.75 -3.41,-8.04 -140.5,-347.99 -140.5,-347.99 0,0 -3.41,-5.75 1.14,-5.75z"/>
   <line class="fil0 str1" x1="125.91" y1="146.32" x2="153.87" y2= "95.54" />
   <line class="fil0 str1" x1="138.81" y1="168" x2="181.06" y2= "91.26" />
  </g>
 </g>
</svg>
