<?xml version="1.0" encoding="UTF-8"?>
<!DOCTYPE svg PUBLIC "-//W3C//DTD SVG 1.1//EN" "http://www.w3.org/Graphics/SVG/1.1/DTD/svg11.dtd">
<!-- Creator: CorelDRAW 2019 (64-Bit Evaluation Version) -->
<svg xmlns="http://www.w3.org/2000/svg" xml:space="preserve" width="512px" height="512px" version="1.1" style="shape-rendering:geometricPrecision; text-rendering:geometricPrecision; image-rendering:optimizeQuality; fill-rule:evenodd; clip-rule:evenodd"
viewBox="0 0 512 512"
 xmlns:xlink="http://www.w3.org/1999/xlink">
 <defs>
  <style type="text/css">
   <![CDATA[
    .fil0 {fill:black}
   ]]>
  </style>
 </defs>
 <g id="Layer_x0020_1">
  <metadata id="CorelCorpID_0Corel-Layer"/>
  <g id="_1573094880928">
   <g>
    <g>
     <path class="fil0" d="M256.63 67.75c-0.2,0 -0.59,-0.05 -0.59,-0.05 -0.23,0 -0.46,-0.02 -0.69,-0.02 -82.11,0 -148.67,66.58 -148.67,148.65 0,82.12 66.56,148.67 148.67,148.67 0.2,0 0.38,-0.02 0.59,-0.03 0,0 0.45,0.12 0.69,0.12 82.12,0 148.67,-66.58 148.67,-148.68 0,-82.06 -66.57,-148.66 -148.67,-148.66z"/>
     <path class="fil0" d="M401.59 335.1c2.02,-0.54 4.32,-0.69 6.87,-0.31 10.98,1.67 15.87,-5.06 10.87,-14.96 -4.96,-9.92 0,-18.56 11.08,-19.17 11.11,-0.65 14.48,-8.25 7.55,-16.92 -6.95,-8.65 -3.88,-18.15 6.81,-21.07 10.72,-2.9 12.46,-11.09 3.83,-18.1 -8.6,-7.03 -7.53,-16.93 2.3,-22.06 9.9,-5.08 9.9,-13.36 0,-18.47 -9.86,-5.09 -10.9,-15.01 -2.3,-22.03 8.63,-7.03 6.89,-15.16 -3.83,-18.08 -10.69,-2.92 -13.76,-12.41 -6.81,-21.08 6.93,-8.64 3.54,-16.26 -7.55,-16.89 -11.08,-0.64 -16.05,-9.27 -11.08,-19.16 5.01,-9.93 0.11,-16.68 -10.87,-14.97 -10.97,1.65 -17.63,-5.73 -14.81,-16.47 2.83,-10.73 -3.35,-16.31 -13.74,-12.39 -10.4,3.92 -18.44,-1.92 -17.92,-13.01 0.54,-11.11 -6.69,-15.27 -16,-9.24 -9.34,6 -18.44,1.95 -20.22,-9.02 -1.8,-10.98 -9.71,-13.55 -17.58,-5.74 -7.89,7.82 -17.64,5.74 -21.66,-4.61 -4.02,-10.34 -12.32,-11.18 -18.38,-1.93 -3.3,5.04 -7.72,7.06 -12.07,6.65l0 0c-4.39,0.47 -8.86,-1.58 -12.19,-6.65 -6.07,-9.26 -14.36,-8.4 -18.38,1.93 -4.01,10.34 -13.77,12.43 -21.66,4.61 -7.9,-7.82 -15.8,-5.27 -17.6,5.72 -1.79,10.97 -10.9,15.02 -20.23,9.02 -9.35,-5.99 -16.56,-1.84 -16.03,9.27 0.51,11.06 -7.53,16.91 -17.91,12.98 -10.39,-3.9 -16.57,1.66 -13.75,12.4 2.82,10.73 -3.83,18.15 -14.8,16.46 -10.99,-1.71 -15.88,5.03 -10.88,14.97 4.97,9.91 0,18.52 -11.08,19.16 -11.09,0.63 -14.48,8.24 -7.55,16.87 6.97,8.69 3.89,18.19 -6.81,21.09 -10.72,2.91 -12.44,11.06 -3.83,18.08 8.61,7.02 7.55,16.94 -2.3,22.03 -9.9,5.11 -9.9,13.39 0,18.47 9.86,5.13 10.9,15.02 2.3,22.06 -8.61,7.01 -6.87,15.18 3.83,18.1 10.71,2.92 13.78,12.41 6.83,21.07 -6.94,8.64 -3.55,16.27 7.55,16.92 11.07,0.61 16.04,9.25 11.07,19.17 -5.01,9.87 -0.12,16.62 10.87,14.93 2.56,-0.4 4.84,-0.26 6.87,0.31l-61.01 114.25 64.43 -0.01 32.73 49.65 61.64 -101.51c6.83,-3.55 13.99,-0.74 17.29,7.74 4.02,10.36 12.33,11.2 18.39,1.93 3.29,-5.01 7.71,-7.04 12.07,-6.62l0 0.07c4.39,-0.47 8.85,1.57 12.18,6.63 6.07,9.27 14.36,8.44 18.38,-1.93 3.3,-8.48 10.48,-11.29 17.29,-7.75l61.66 101.51 32.72 -49.64 64.44 0 -61.02 -114.26zm-66.52 22.95l-2.32 1.27c-22.8,12.09 -48.8,19.01 -76.38,19.01 -0.11,0 -0.31,-0.11 -0.31,-0.11 -0.14,0 -0.28,0.02 -0.41,0.02 -27.6,0 -53.59,-6.92 -76.39,-19.03l-2.33 -1.27c-50,-27.62 -83.95,-80.59 -83.95,-141.36 0,-89.11 72.98,-161.61 162.67,-161.61 0.11,0 0.3,0.11 0.3,0.11 0.14,0 0.28,-0.02 0.42,-0.02 89.68,0 162.66,72.52 162.66,161.62 -0.03,60.77 -33.97,113.74 -83.96,141.37z"/>
    </g>
   </g>
   <g>
   </g>
   <g>
   </g>
   <g>
   </g>
   <g>
   </g>
   <g>
   </g>
   <g>
   </g>
   <g>
   </g>
   <g>
   </g>
   <g>
   </g>
   <g>
   </g>
   <g>
   </g>
   <g>
   </g>
   <g>
   </g>
   <g>
   </g>
   <g>
   </g>
  </g>
 </g>
</svg>
